<!DOCTYPE svg PUBLIC "-//W3C//DTD SVG 1.1//EN" "http://www.w3.org/Graphics/SVG/1.1/DTD/svg11.dtd">
<!-- Uploaded to: SVG Repo, www.svgrepo.com, Transformed by: SVG Repo Mixer Tools -->
<svg width="800px" height="800px" viewBox="0 0 24 24" fill="none" xmlns="http://www.w3.org/2000/svg">
<g id="SVGRepo_bgCarrier" stroke-width="0"/>
<g id="SVGRepo_tracerCarrier" stroke-linecap="round" stroke-linejoin="round"/>
<g id="SVGRepo_iconCarrier"> <path fill-rule="evenodd" clip-rule="evenodd" d="M5 19C5 18.4477 5.44772 18 6 18L18 18C18.5523 18 19 18.4477 19 19C19 19.5523 18.5523 20 18 20L6 20C5.44772 20 5 19.5523 5 19Z" fill="#f9f21a"/> <path fill-rule="evenodd" clip-rule="evenodd" d="M9.87867 4.70711C11.0502 3.53554 12.9497 3.53554 14.1213 4.70711L16.6878 7.27359C16.9922 7.57795 17.4571 7.6534 17.8421 7.46091L18.5528 7.10558C20.0877 6.33813 21.7842 7.80954 21.2416 9.43755L19.4045 14.9487C18.9962 16.1737 17.8498 17 16.5585 17H7.44151C6.15022 17 5.0038 16.1737 4.59546 14.9487L2.75842 9.43755C2.21575 7.80955 3.91231 6.33813 5.44721 7.10558L6.15787 7.46091C6.54286 7.6534 7.00783 7.57795 7.31219 7.27359L9.87867 4.70711Z" fill="#f9f21a"/> </g>
</svg>